<svg width="48" height="48" viewBox="0 0 48 48" fill="none" xmlns="http://www.w3.org/2000/svg">
<path d="M22.9989 31.4712C22.2224 31.4712 21.5871 30.8359 21.5871 30.0594C21.5871 24.6241 17.14 20.177 11.7047 20.177C10.9283 20.177 10.293 19.5418 10.293 18.7653C10.293 17.9888 10.9283 17.3535 11.7047 17.3535C18.7283 17.3535 24.4106 23.0359 24.4106 30.0594C24.4106 30.8359 23.7753 31.4712 22.9989 31.4712Z" fill="#1F2041" fill-opacity="0.25"/>
<path d="M35.7068 18.7653C35.7068 19.5418 35.0715 20.177 34.295 20.177C30.9421 20.177 27.9421 21.8712 26.1774 24.4476C25.7892 23.4594 25.3303 22.5418 24.7656 21.6947C27.095 19.0123 30.5186 17.3535 34.295 17.3535C35.0715 17.3535 35.7068 17.9888 35.7068 18.7653Z" fill="#1F2041" fill-opacity="0.25"/>
<path d="M24 48C10.7647 48 0 37.2353 0 24C0 10.7647 10.7647 0 24 0C37.2353 0 48 10.7647 48 24C48 37.2353 37.2353 48 24 48ZM24 2.82353C12.3176 2.82353 2.82353 12.3176 2.82353 24C2.82353 35.6824 12.3176 45.1765 24 45.1765C35.6824 45.1765 45.1765 35.6824 45.1765 24C45.1765 12.3176 35.6824 2.82353 24 2.82353Z" fill="#1F2041" fill-opacity="0.25"/>
</svg>
